<svg preserveAspectRatio="none" width="100%" height="100%" overflow="visible" style="display: block;" viewBox="0 0 40 40" fill="none" xmlns="http://www.w3.org/2000/svg">
<g id="Agent">
<path id="Vector" d="M24 18H16C13.7909 18 12 19.7909 12 22V24C12 26.2091 13.7909 28 16 28H24C26.2091 28 28 26.2091 28 24V22C28 19.7909 26.2091 18 24 18Z" stroke="var(--stroke-0, black)" stroke-width="1.2" stroke-linecap="round" stroke-linejoin="round"/>
<path id="Vector_2" d="M20 18V14" stroke="var(--stroke-0, black)" stroke-width="1.2" stroke-linecap="round" stroke-linejoin="round"/>
<path id="Vector_3" d="M20 14C21.1046 14 22 13.1046 22 12C22 10.8954 21.1046 10 20 10C18.8954 10 18 10.8954 18 12C18 13.1046 18.8954 14 20 14Z" stroke="var(--stroke-0, black)" stroke-width="1.2" stroke-linecap="round" stroke-linejoin="round"/>
<path id="Vector_4" d="M16 22H16.01" stroke="var(--stroke-0, black)" stroke-width="2.4" stroke-linecap="round" stroke-linejoin="round"/>
<path id="Vector_5" d="M24 22H24.01" stroke="var(--stroke-0, black)" stroke-width="2.4" stroke-linecap="round" stroke-linejoin="round"/>
</g>
</svg>
