<svg preserveAspectRatio="none" width="100%" height="100%" overflow="visible" style="display: block;" viewBox="0 0 40 40" fill="none" xmlns="http://www.w3.org/2000/svg">
<g id="Model">
<g id="Rectangle 74">
</g>
<path id="Vector" d="M23.8889 13H16.1111C14.3929 13 13 14.3929 13 16.1111V23.8889C13 25.6071 14.3929 27 16.1111 27H23.8889C25.6071 27 27 25.6071 27 23.8889V16.1111C27 14.3929 25.6071 13 23.8889 13Z" stroke="var(--stroke-0, black)" stroke-width="1.2" stroke-linecap="round" stroke-linejoin="round"/>
<path id="Vector_2" d="M21.6667 17H18.3333C17.597 17 17 17.597 17 18.3333V21.6667C17 22.403 17.597 23 18.3333 23H21.6667C22.403 23 23 22.403 23 21.6667V18.3333C23 17.597 22.403 17 21.6667 17Z" stroke="var(--stroke-0, black)" stroke-width="1.2" stroke-linecap="round" stroke-linejoin="round"/>
<path id="Vector_3" d="M25 13V11" stroke="var(--stroke-0, black)" stroke-width="1.2" stroke-linecap="round" stroke-linejoin="round"/>
<path id="Vector_4" d="M20 13V11" stroke="var(--stroke-0, black)" stroke-width="1.2" stroke-linecap="round" stroke-linejoin="round"/>
<path id="Vector_5" d="M16 13V11" stroke="var(--stroke-0, black)" stroke-width="1.2" stroke-linecap="round" stroke-linejoin="round"/>
<path id="Vector_6" d="M16 27V29" stroke="var(--stroke-0, black)" stroke-width="1.2" stroke-linecap="round" stroke-linejoin="round"/>
<path id="Vector_7" d="M20 27V29" stroke="var(--stroke-0, black)" stroke-width="1.2" stroke-linecap="round" stroke-linejoin="round"/>
<path id="Vector_8" d="M25 27V29" stroke="var(--stroke-0, black)" stroke-width="1.2" stroke-linecap="round" stroke-linejoin="round"/>
<path id="Vector_9" d="M27 25H29" stroke="var(--stroke-0, black)" stroke-width="1.2" stroke-linecap="round" stroke-linejoin="round"/>
<path id="Vector_10" d="M27 20H29" stroke="var(--stroke-0, black)" stroke-width="1.2" stroke-linecap="round" stroke-linejoin="round"/>
<path id="Vector_11" d="M27 16H29" stroke="var(--stroke-0, black)" stroke-width="1.2" stroke-linecap="round" stroke-linejoin="round"/>
<path id="Vector_12" d="M13 25H11" stroke="var(--stroke-0, black)" stroke-width="1.2" stroke-linecap="round" stroke-linejoin="round"/>
<path id="Vector_13" d="M13 20H11" stroke="var(--stroke-0, black)" stroke-width="1.2" stroke-linecap="round" stroke-linejoin="round"/>
<path id="Vector_14" d="M13 16H11" stroke="var(--stroke-0, black)" stroke-width="1.2" stroke-linecap="round" stroke-linejoin="round"/>
</g>
</svg>
